<svg id="Layer_2" data-name="Layer 2" xmlns="http://www.w3.org/2000/svg" width="56" height="16.65" viewBox="0 0 56 16.65">
  <g>
    <path d="M0,13.81,10.05,7.5s-4.79,3.93,0,3.65c4.51-.27,10.64-1,18.66-1.13,8.88-.11,20.71,0,27.24,1.59a208.06,208.06,0,0,0-23.75-.7s-8.51.17-18.41,1.34C9.78,12.73,0,13.81,0,13.81" style="fill: #fff"/>
    <polygon points="13.49 9.14 11.75 9.14 13.36 1.56 10.7 1.56 11.02 0.07 18.08 0.07 17.77 1.56 15.11 1.56 13.49 9.14" style="fill: #fff"/>
    <path d="M21.54,6c-.52,2.46-1,3.25-3.67,3.25S15.05,8.43,15.57,6s1-3.25,3.68-3.25,2.82.79,2.29,3.25M17.09,6c-.36,1.69-.33,2.06,1,2.06S19.66,7.68,20,6s.33-2.11-1-2.11S17.45,4.27,17.09,6" style="fill: #fff"/>
    <path d="M24.31,3.75h.05a2.36,2.36,0,0,1,2.2-1c2.36,0,2.12,1.49,1.7,3.44s-.9,3.06-3.08,3.06c-.77,0-1.55-.15-1.71-.92h-.06l-.77,3.59H21.12l1.93-9.1h1.53Zm2.43,2.41c.31-1.44.52-2.28-.87-2.28-1.56,0-1.69.76-2,2.28-.29,1.35-.2,1.89,1.12,1.89,1.06,0,1.42-.3,1.76-1.89" style="fill: #fff"/>
    <path d="M30.52,6.25l-.09.43c-.22,1,.21,1.11,1.82,1.11s1.86-.29,2.09-1.34c.27-1.3-.45-1.13-1.79-1.2-1.94-.12-3.5,0-2.94-2.69C30.14.07,31.73,0,33.9,0c1.85,0,3.35.06,2.85,2.44l-.06.29H34.94L35,2.44c.2-1-.19-1-1.41-1-1.73,0-2,.17-2.25,1.13-.24,1.12,0,1.15,1.73,1.26,2.76.17,3.49.32,3,2.63-.55,2.55-1.8,2.77-4.14,2.77-2,0-3.81.06-3.25-2.54l.09-.43Z" style="fill: #fff"/>
    <path d="M42.66,6c-.52,2.46-1,3.25-3.68,3.25S36.16,8.43,36.69,6s1-3.25,3.67-3.25,2.82.79,2.3,3.25M38.21,6c-.36,1.69-.33,2.06,1,2.06s1.54-.37,1.9-2.06.34-2.11-1-2.11S38.57,4.27,38.21,6" style="fill: #fff"/>
    <polygon points="44.38 9.14 42.86 9.14 44.79 0.07 46.31 0.07 44.38 9.14" style="fill: #fff"/>
    <path d="M46.91,9.14H45.39l1.34-6.35h1.53Zm1.65-7.77H47l.27-1.3h1.53Z" style="fill: #fff"/>
    <path d="M52.31,8.19h-.05a2.36,2.36,0,0,1-2.2,1c-2.36,0-2.11-1.49-1.7-3.44s.91-3.06,3.08-3.06c.78,0,1.56.15,1.72.92h.06L54,.07H55.5L53.57,9.14H52.05ZM49.89,5.78c-.31,1.44-.52,2.27.87,2.27,1.56,0,1.66-.76,2-2.27.29-1.35.22-1.9-1.1-1.9-1,0-1.42.3-1.75,1.9" style="fill: #fff"/>
    <g>
      <path d="M32.51,14.69l0,.14c-.07.34.06.37.58.37s.6-.1.67-.45-.15-.37-.57-.39c-.62,0-1.13,0-.95-.89s.68-.85,1.38-.85,1.07,0,.91.81l0,.1h-.56l0-.1c.07-.32-.06-.33-.45-.33-.55,0-.65.05-.72.37s0,.38.56.42c.88,0,1.11.1,1,.86s-.58.92-1.33.92-1.22,0-1-.84l0-.14Z" style="fill: #fff"/>
      <path d="M35.59,13.86h0a.7.7,0,0,1,.71-.34c.53,0,.65.23.54.74l-.28,1.39h-.49l.28-1.34c.06-.3,0-.4-.3-.4s-.53.2-.6.58l-.24,1.16h-.49l.62-3h.49Z" style="fill: #fff"/>
      <path d="M39.38,14.6c-.16.81-.32,1.07-1.17,1.07s-.91-.26-.74-1.07.33-1.08,1.18-1.08S39.55,13.78,39.38,14.6ZM38,14.6c-.12.56-.11.69.33.69s.49-.13.61-.69.1-.69-.33-.69S38.07,14,38,14.6Z" style="fill: #fff"/>
      <path d="M40.67,13.86h0a.76.76,0,0,1,.71-.34c.75,0,.67.5.54,1.14s-.29,1-1,1c-.24,0-.49-.05-.55-.3h0l-.24,1.18h-.49l.62-3h.49Zm.78.8c.1-.48.17-.75-.28-.75s-.54.25-.64.75-.06.63.36.63S41.34,15.19,41.45,14.66Z" style="fill: #fff"/>
      <path d="M43.32,13.93h1.29l-.09.48h-1.3L43,15.65h-.56l.62-3H45l-.1.49H43.48Z" style="fill: #fff"/>
      <path d="M45.44,15.65H45l.62-3h.49Z" style="fill: #fff"/>
      <path d="M48.25,14.6c-.17.81-.33,1.07-1.18,1.07s-.9-.26-.74-1.07.33-1.08,1.18-1.08S48.42,13.78,48.25,14.6Zm-1.43,0c-.11.56-.1.69.33.69s.49-.13.61-.69.11-.69-.33-.69S46.94,14,46.82,14.6Z" style="fill: #fff"/>
      <path d="M50.77,14.6c-.17.81-.33,1.07-1.18,1.07s-.9-.26-.73-1.07.33-1.08,1.18-1.08S50.94,13.78,50.77,14.6Zm-1.43,0c-.11.56-.1.69.33.69s.5-.13.61-.69.11-.69-.32-.69S49.46,14,49.34,14.6Z" style="fill: #fff"/>
      <path d="M52.11,13.55l-.07.27h0a.66.66,0,0,1,.6-.3c.43,0,.48.27.4.66l0,.17h-.46l0-.11c0-.21,0-.33-.18-.33s-.41.17-.46.44l-.26,1.3H51.2l.43-2.1Z" style="fill: #fff"/>
    </g>
  </g>
</svg>
