<svg xmlns="http://www.w3.org/2000/svg" viewBox="0 0 900 900"><path d="M314 206.5c8.9 0 17.5-1.4 25.5-3.9l12.1 28.5c3.3-1.5 6.7-2.9 10.1-4.3l-11.9-28.2c29.1-13.5 49.2-42.9 49.2-77.1 0-46.9-38.1-85-85-85s-85 38.1-85 85 38.1 85 85 85zm0-155c38.6 0 70 31.4 70 70s-31.4 70-70 70-70-31.4-70-70 31.4-70 70-70zM584 695c-8.9 0-17.5 1.4-25.5 3.9l-12.1-28.5c-3.3 1.5-6.7 2.9-10.1 4.3l11.9 28.2c-29 13.6-49.2 43-49.2 77.1 0 46.9 38.1 85 85 85s85-38.1 85-85-38.1-85-85-85zm0 155c-38.6 0-70-31.4-70-70s31.4-70 70-70 70 31.4 70 70-31.4 70-70 70zm109.3-534.2c0 8.9 1.4 17.5 3.9 25.5l-28.5 12.1c1.5 3.3 2.9 6.7 4.3 10.1l28.2-11.9c13.5 29.1 42.9 49.2 77.1 49.2 46.9 0 85-38.1 85-85s-38.1-85-85-85c-47 0-85 38-85 85zm155 0c0 38.6-31.4 70-70 70s-70-31.4-70-70 31.4-70 70-70 70 31.4 70 70zm-643.6 270c0-8.9-1.4-17.5-3.9-25.5l28.5-12.1c-1.5-3.3-2.9-6.7-4.3-10.1L196.8 550c-13.5-29.1-42.9-49.2-77.1-49.2-46.9 0-85 38.1-85 85s38.1 85 85 85c47 0 85-38.1 85-85zm-155 0c0-38.6 31.4-70 70-70s70 31.4 70 70-31.4 70-70 70-70-31.4-70-70zm476.6-403.2c6.3 6.3 13.3 11.4 20.8 15.3l-11.6 28.6c3.4 1.3 6.8 2.7 10.2 4.1l11.5-28.3c30.1 11 65.2 4.4 89.3-19.7 33.2-33.2 33.2-87 0-120.2s-87-33.2-120.2 0-33.2 87 0 120.2zM635.9 73c27.3 27.3 27.3 71.7 0 99-27.3 27.3-71.7 27.3-99 0-27.3-27.3-27.3-71.7 0-99 27.3-27.3 71.7-27.3 99 0zM371.7 719c-6.3-6.3-13.3-11.4-20.8-15.3l11.6-28.6c-3.4-1.3-6.8-2.7-10.2-4.1l-11.5 28.3c-30.1-11-65.2-4.4-89.3 19.7-33.2 33.2-33.2 87 0 120.2s87 33.2 120.2 0 33.2-87 0-120.2zM262.1 828.6c-27.3-27.3-27.3-71.7 0-99 27.3-27.3 71.7-27.3 99 0 27.3 27.3 27.3 71.7 0 99-27.3 27.3-71.7 27.3-99 0zM717.2 528c-6.3 6.3-11.4 13.3-15.3 20.8l-28.6-11.6c-1.3 3.4-2.7 6.8-4.1 10.2l28.3 11.5c-11 30.1-4.4 65.2 19.7 89.3 33.2 33.2 87 33.2 120.2 0s33.2-87 0-120.2-87-33.2-120.2 0zm109.6 109.6c-27.3 27.3-71.7 27.3-99 0-27.3-27.3-27.3-71.7 0-99 27.3-27.3 71.7-27.3 99 0 27.3 27.3 27.3 71.8 0 99zm-646-264.1c6.3-6.3 11.4-13.3 15.3-20.8l28.6 11.6c1.3-3.4 2.7-6.8 4.1-10.2l-28.3-11.5c11-30.1 4.4-65.2-19.7-89.3-33.2-33.2-87-33.2-120.2 0s-33.2 87 0 120.2 87 33.2 120.2 0zM71.2 263.9c27.3-27.3 71.7-27.3 99 0 27.3 27.3 27.3 71.7 0 99-27.3 27.3-71.7 27.3-99 0-27.3-27.3-27.3-71.7 0-99z" fill="#fff" opacity=".07"/><path d="M1418.9 457.5v13.8h-2.5v-13.8h2.5zm13.7 0v13.8h-2.2l-6.5-9.4h-.1v9.4h-2.5v-13.8h2.2l6.5 9.4h.1v-9.4h2.5zm1.7 2.1v-2.1h11v2.1h-4.3v11.7h-2.5v-11.7h-4.2zm12.7 11.7v-13.8h9v2.1h-6.5v3.8h6v2.1h-6v3.8h6.5v2.1h-9zm20.5-9.4c-.1-.4-.3-.7-.5-1-.2-.3-.4-.5-.7-.7s-.6-.4-.9-.5c-.4-.1-.7-.2-1.1-.2-.7 0-1.4.2-2 .6-.6.4-1 .9-1.4 1.6-.3.7-.5 1.6-.5 2.6s.2 1.9.5 2.7c.3.7.8 1.3 1.4 1.7.6.4 1.3.6 2 .6s1.3-.1 1.8-.4c.5-.3.9-.7 1.2-1.2.3-.5.4-1.1.4-1.8l.6.1h-3.8v-2h5.6v1.7c0 1.2-.3 2.2-.8 3.1-.5.9-1.2 1.5-2.1 2s-1.9.7-3 .7c-1.3 0-2.4-.3-3.3-.9-1-.6-1.7-1.4-2.2-2.4-.5-1.1-.8-2.3-.8-3.8 0-1.1.2-2.1.5-3 .3-.9.8-1.6 1.3-2.2.6-.6 1.2-1.1 2-1.4.8-.3 1.6-.5 2.5-.5.8 0 1.5.1 2.1.3s1.2.5 1.8.9.9.9 1.3 1.5c.3.6.6 1.2.7 1.9h-2.6zm4.7 9.4v-13.8h5.2c1.1 0 2 .2 2.7.6.7.4 1.3.9 1.6 1.5.4.7.6 1.4.6 2.3 0 .9-.2 1.7-.6 2.3-.4.6-.9 1.2-1.7 1.5-.7.4-1.6.5-2.7.5h-3.7v-2.1h3.4c.6 0 1.1-.1 1.5-.3.4-.2.7-.4.9-.8s.3-.7.3-1.2-.1-.9-.3-1.3-.5-.6-.9-.8c-.4-.2-.9-.3-1.5-.3h-2.3v11.7h-2.5zm7.1-6.3l3.4 6.3h-2.8l-3.4-6.3h2.8zm6.6 6.3h-2.7l4.9-13.8h3.1l4.9 13.8h-2.7l-3.7-11h-.1l-3.7 11zm.1-5.4h7.3v2h-7.3v-2zm10.9-6.3v-2.1h11v2.1h-4.3v11.7h-2.5v-11.7h-4.2zm12.8 11.7v-13.8h9v2.1h-6.5v3.8h6v2.1h-6v3.8h6.5v2.1h-9zm15.8 0h-4.7v-13.8h4.8c1.4 0 2.6.3 3.5.8 1 .6 1.7 1.3 2.3 2.4.5 1 .8 2.3.8 3.7 0 1.4-.3 2.7-.8 3.7s-1.3 1.8-2.3 2.4c-1 .5-2.2.8-3.6.8zm-2.2-2.2h2.1c1 0 1.8-.2 2.4-.5.6-.4 1.1-.9 1.5-1.6.3-.7.5-1.6.5-2.6s-.2-1.9-.5-2.6c-.3-.7-.8-1.2-1.4-1.6s-1.4-.5-2.4-.5h-2.1v9.4zm-79.8 25h-4.7v-13.8h4.8c1.4 0 2.6.3 3.5.8s1.7 1.3 2.3 2.4c.5 1 .8 2.3.8 3.7 0 1.4-.3 2.7-.8 3.7s-1.3 1.8-2.3 2.4c-1 .5-2.2.8-3.6.8zm-2.2-2.2h2.1c1 0 1.8-.2 2.4-.5.6-.4 1.1-.9 1.5-1.6.3-.7.5-1.6.5-2.6 0-1.1-.2-1.9-.5-2.6-.3-.7-.8-1.2-1.4-1.6s-1.4-.5-2.4-.5h-2.1v9.4zm13.4-11.6v13.8h-2.5v-13.8h2.5zm11.6 4.4c-.1-.4-.3-.7-.5-1-.2-.3-.4-.5-.7-.7s-.6-.4-.9-.5-.7-.2-1.1-.2c-.7 0-1.4.2-2 .6-.6.4-1 .9-1.4 1.6-.3.7-.5 1.6-.5 2.6s.2 1.9.5 2.7c.3.7.8 1.3 1.4 1.6.6.4 1.3.6 2 .6s1.3-.1 1.8-.4c.5-.3.9-.7 1.2-1.2.3-.5.4-1.1.4-1.8l.6.1h-3.8v-2h5.6v1.7c0 1.2-.3 2.2-.8 3.1s-1.2 1.5-2.1 2c-.9.5-1.9.7-3 .7-1.3 0-2.4-.3-3.3-.9-1-.6-1.7-1.4-2.2-2.4s-.8-2.3-.8-3.8c0-1.1.2-2.1.5-3 .3-.9.8-1.6 1.3-2.2s1.2-1.1 2-1.4 1.6-.5 2.5-.5c.8 0 1.5.1 2.1.3s1.2.5 1.8.9.9.9 1.3 1.5.6 1.2.7 1.9h-2.6zm7.2-4.4v13.8h-2.5v-13.8h2.5zm1.7 2.1v-2.1h11v2.1h-4.3v11.7h-2.5v-11.7h-4.2zm14.6 11.7h-2.7l4.9-13.8h3.1l4.9 13.8h-2.7l-3.7-11h-.1l-3.7 11zm.1-5.4h7.3v2h-7.3v-2zm11.5 5.4v-13.8h2.5V492h6.1v2.1h-8.6zm-70.8 22.8v-13.8h8.9v2.1h-6.3v3.8h5.7v2.1h-5.7v5.9h-2.6zm12.5 0h-2.7l4.9-13.8h3.1l4.9 13.8h-2.7l-3.7-11h-.1l-3.7 11zm.1-5.4h7.3v2h-7.3v-2zm23.4-3.8h-2.5c-.1-.4-.2-.8-.4-1.1-.2-.3-.4-.6-.7-.8-.3-.2-.6-.4-1-.5-.4-.1-.8-.2-1.2-.2-.8 0-1.4.2-2 .6-.6.4-1 .9-1.4 1.6s-.5 1.6-.5 2.6c0 1.1.2 1.9.5 2.7.3.7.8 1.3 1.4 1.6.6.4 1.2.5 2 .5.4 0 .8-.1 1.2-.2.4-.1.7-.3 1-.5.3-.2.5-.5.7-.8.2-.3.3-.7.4-1.1h2.5c-.1.7-.3 1.3-.6 1.8-.3.6-.7 1.1-1.2 1.5s-1.1.8-1.8 1-1.4.4-2.2.4c-1.2 0-2.3-.3-3.3-.8-1-.6-1.7-1.4-2.3-2.4s-.8-2.3-.8-3.8.3-2.8.8-3.8c.6-1.1 1.3-1.9 2.3-2.4 1-.6 2-.8 3.2-.8.8 0 1.5.1 2.1.3s1.3.5 1.8.9.9.9 1.3 1.5c.3.8.6 1.5.7 2.2zm1.3-2.5v-2.1h11v2.1h-4.3v11.7h-2.5v-11.7h-4.2zm25.1 4.8c0 1.5-.3 2.8-.8 3.8s-1.3 1.9-2.3 2.4c-1 .6-2 .8-3.2.8s-2.3-.3-3.2-.8-1.7-1.4-2.3-2.4c-.6-1.1-.8-2.3-.8-3.8s.3-2.8.8-3.8c.6-1.1 1.3-1.9 2.3-2.4s2-.8 3.2-.8 2.3.3 3.2.8c1 .6 1.7 1.4 2.3 2.4s.8 2.3.8 3.8zm-2.5 0c0-1-.2-1.9-.5-2.7s-.8-1.3-1.4-1.6-1.2-.6-2-.6-1.4.2-2 .6c-.6.4-1 .9-1.4 1.6s-.5 1.6-.5 2.7.2 1.9.5 2.7.8 1.3 1.4 1.6c.6.4 1.2.6 2 .6s1.4-.2 2-.6 1-.9 1.4-1.6.5-1.7.5-2.7zm4.5 6.9v-13.8h5.2c1.1 0 2 .2 2.7.6.7.4 1.3.9 1.6 1.5.4.7.6 1.4.6 2.3 0 .9-.2 1.7-.6 2.3-.4.7-.9 1.2-1.7 1.5-.7.4-1.6.5-2.7.5h-3.7v-2.1h3.4c.6 0 1.1-.1 1.5-.3.4-.2.7-.4.9-.8.2-.3.3-.7.3-1.2s-.1-.9-.3-1.3-.5-.6-.9-.8c-.4-.2-.9-.3-1.5-.3h-2.3v11.7h-2.5zm7.1-6.3l3.4 6.3h-2.8l-3.4-6.3h2.8zm3.9-7.5h2.8l3.4 6.1h.1l3.4-6.1h2.8l-5 8.7v5.2h-2.5v-5.2l-5-8.7z" fill="#fff"/></svg>