<svg xmlns="http://www.w3.org/2000/svg" width="23.305" height="16.935"><path d="M22.662.312a10.34 10.34 0 01-3.038 1.04A5.042 5.042 0 0016.135 0a4.55 4.55 0 00-4.781 4.276 3.875 3.875 0 00.124.974A14.167 14.167 0 011.624.782a3.906 3.906 0 00-.646 2.149 4.175 4.175 0 002.126 3.558 5.218 5.218 0 01-2.165-.537v.052a4.431 4.431 0 003.834 4.194 5.31 5.31 0 01-1.259.15 5.453 5.453 0 01-.9-.077 4.753 4.753 0 004.465 2.971 10.332 10.332 0 01-5.937 1.83 11.259 11.259 0 01-1.141-.058 14.724 14.724 0 007.329 1.92c8.794 0 13.6-6.517 13.6-12.167l-.016-.554a9.136 9.136 0 002.389-2.209 10.521 10.521 0 01-2.745.673A4.423 4.423 0 0022.662.312z" fill="#222"/></svg>